<svg xmlns="http://www.w3.org/2000/svg" width="535" height="552" fill="none" viewBox="0 0 535 552"><path fill="#0396FF" d="M503.062.437c-.562.375-.421.468.61.468 2.484 0 8.484 1.5 11.437 2.813 5.344 2.437 9.75 7.594 10.922 12.89 2.531 11.25-2.859 26.016-15.375 42.047-1.969 2.532-3.75 4.594-3.937 4.594-.235 0-.375-1.219-.375-2.719 0-4.312-1.782-26.297-2.86-34.594-.89-7.5-2.578-14.906-3.937-17.484-.844-1.64-3.328-3.797-4.36-3.797-2.015.047-5.203 2.157-9 6-2.203 2.25-8.906 10.172-14.953 17.578-6 7.407-13.968 16.97-17.672 21.188-6.609 7.547-21.562 23.203-22.171 23.203-.188 0-.61-.75-.938-1.64-.844-2.391-2.719-4.454-4.078-4.454-2.25 0-3.703 1.969-19.219 26.344-1.969 3.047-5.765 6.938-6.844 6.938-.187 0 .75-2.25 2.063-5.063 3.375-7.219 5.906-15.188 6.844-21.375.656-4.64.656-6.047.14-11.812-1.922-20.485-6.843-35.813-11.437-35.813-1.641 0-3.469 2.063-5.578 6.328-3.563 7.031-19.266 37.031-23.25 44.297-10.36 19.031-18.328 31.266-28.828 44.297-11.157 13.875-15.75 18.75-27.516 29.156-23.625 20.953-43.875 40.453-51.797 50.016-13.922 16.687-22.406 32.531-32.297 60.281-4.312 12.094-6 16.406-6.328 16.406-.141 0-2.297-3.093-4.734-6.937-14.485-22.5-23.438-30.141-39.141-33.422-6.234-1.359-17.766-.234-25.781 2.484-8.531 2.86-17.016 8.203-23.953 15.094-3.844 3.844-5.063 5.391-6.469 8.344-1.453 3-2.391 4.172-5.578 7.078-6.516 5.812-11.11 9.328-11.813 9.047-1.547-.563-9.562-6.188-12.375-8.672-5.625-4.875-10.687-12.188-12.609-18.094-1.36-4.219-1.594-5.859-.844-5.859.375 0 .75.281.89.656.141.375 1.641 1.359 3.376 2.203 2.766 1.36 3.516 1.5 7.172 1.5 5.953 0 14.297-2.625 19.593-6.234 5.625-3.844 14.063-13.172 18.844-20.906 2.485-3.985 5.25-9.235 5.25-9.985 0-.234-2.906.891-6.422 2.531-13.359 6.047-17.297 7.172-29.906 8.625-5.062.563-8.953 1.266-10.64 1.922-2.72.985-8.344 4.828-8.344 5.672a.42.42 0 0 1-.422.422c-.188 0-.656-1.312-.984-2.906-1.641-8.391-8.86-16.641-19.126-21.891-1.078-.562-1.968-1.172-1.968-1.359 0-.188.937-.61 2.11-.938 6.28-1.687 11.483-7.734 13.827-16.125 1.219-4.406 2.016-12.047 1.64-15.515l-.327-2.719-1.688 2.016c-6.14 7.312-10.078 10.593-17.203 14.39-4.5 2.391-6.047 3.75-7.547 6.703-1.218 2.391-1.453 4.547-.61 6.094.282.516.376 1.031.235 1.172-.234.281-7.922-3.797-12.468-6.609-6.235-3.891-11.532-8.25-8.626-7.125.844.328 3.75-.797 5.063-1.969.469-.422 1.36-1.875 1.969-3.141 1.828-3.89 1.406-9.89-1.078-15.984-.797-1.922-1.547-2.719-1.547-1.547 0 .281-.797 2.25-1.782 4.359-1.218 2.625-2.765 4.828-4.734 6.938-2.11 2.25-3 3.609-3.187 4.828-.141.937-.516 1.594-.797 1.5-1.172-.375-5.485-7.5-6.61-10.969-1.078-3.328-1.125-3.469-.89-1.406.61 5.109 3.094 10.266 7.687 15.703l2.813 3.375h-1.688c-.937 0-3.843.75-6.468 1.641-3.657 1.218-5.907 1.687-9.563 1.922-2.625.187-4.781.468-4.781.656 0 .562 7.687 4.125 11.25 5.203 4.031 1.219 9.047 1.406 11.953.469 2.39-.797 4.453-2.719 4.453-4.125 0-1.407.188-1.36 2.766.468 3.047 2.204 11.53 7.219 17.859 10.594 2.953 1.594 5.578 3.094 5.813 3.328.234.235-.329.516-1.407.703-3.937.704-5.297 1.266-9.562 4.032-2.438 1.547-5.39 3.328-6.563 3.937-2.297 1.172-9.468 3.516-13.593 4.453-4.313.985-4.266 1.172.515 2.719 6.516 2.109 11.625 2.953 18.938 3.234 5.062.188 7.312.047 9.75-.515 4.218-.985 8.203-3.094 10.312-5.391 1.453-1.64 1.734-2.25 1.734-4.031 0-1.172.141-2.109.376-2.063.703.047 5.062 5.719 6.468 8.438 1.969 3.844 2.485 6.703 2.766 15.844.14 4.218.375 8.156.516 8.812l.328 1.172-2.297-1.172c-6.61-3.328-11.485-3.515-22.875-.703l-8.016 1.969-9.61.047c-5.296 0-12.046-.188-15-.375l-5.39-.422 2.485 2.062c10.124 8.25 22.968 15.188 33.609 18.235 6.656 1.875 16.64 1.64 22.547-.563 3.328-1.219 7.078-4.687 7.5-6.937.187-.797.469-1.453.656-1.453.14 0 1.313 1.64 2.578 3.609 2.906 4.594 10.031 11.766 15.094 15.141 2.156 1.406 3.89 2.671 3.89 2.812 0 .141-2.671 2.109-5.906 4.453-6.703 4.828-7.828 5.766-7.453 6.375.703 1.078 7.688.094 18.047-2.578l4.453-1.125 1.781 1.688c2.344 2.25 6 7.218 7.5 10.218 2.11 4.172 2.813 7.828 2.532 13.313-.282 6.187-1.407 9.75-4.829 15.422-2.953 4.922-3.046 6.093-.562 7.125.891.375 3.047.656 5.156.609 2.86-.047 4.078-.281 6.094-1.266 1.359-.656 2.766-1.687 3.141-2.296.89-1.454 1.265-12.188.562-17.344-1.266-9.516-4.969-18.703-10.266-25.313-1.593-2.015-2.906-3.797-2.906-4.031 0-.187 2.016-.891 4.453-1.547l4.453-1.219 1.969 1.125c7.36 4.172 14.953 10.219 18.938 15.047 4.922 6 6.468 10.407 7.922 22.594 1.5 12.609 4.734 23.859 8.859 30.797 6.047 10.172 15.375 19.828 27.984 29.109 6.61 4.782 20.297 12.469 33.985 18.985 16.172 7.687 37.734 13.078 61.593 15.328 10.36 1.031 20.907 3.937 30.61 8.578 18.609 8.859 31.265 22.172 46.359 48.844 8.11 14.297 14.344 31.453 21.516 58.968 1.781 6.938 3.562 13.079 3.937 13.641 1.735 2.625 7.032 3.891 9.938 2.391.703-.375 2.906-1.125 4.828-1.688 3.891-1.125 9.656-3.656 12.187-5.297.891-.609 3.188-2.015 5.11-3.14 1.922-1.125 4.453-2.625 5.625-3.375 4.734-2.86 5.25-2.86 4.265.187-1.406 4.125-5.625 8.016-10.218 9.375-3.047.891-1.641 1.453 2.25.891 9-1.266 14.343-6.797 15.422-15.891.187-1.547.421-2.906.562-3 .094-.094 1.781-1.406 3.703-2.953 1.922-1.5 6.328-5.25 9.75-8.297 3.985-3.562 6.469-5.484 6.891-5.297 1.078.375.89 5.157-.281 8.672-.985 2.906-3.188 5.672-6.047 7.688l-1.172.843 1.594-.281c2.578-.375 6.328-2.297 8.109-4.125 3.609-3.609 4.969-9.328 3.469-14.531-.422-1.406-.75-2.953-.75-3.422 0-.469 2.39-3.281 5.297-6.234 2.906-3 6.468-6.797 7.875-8.485 2.296-2.672 2.718-2.953 3.375-2.39 1.031.797 1.734 3.468 1.734 6.375 0 3-1.641 6.562-3.938 8.578-2.109 1.828-1.921 1.875 1.454.234 4.359-2.156 7.64-6.656 7.64-10.594 0-1.125-.937-4.265-2.578-8.718l-.75-2.016 2.953-3.844c1.594-2.062 3.094-3.89 3.281-3.937.188-.094.375-.469.375-.844s.188-.656.375-.656c.188 0 .704-.703 1.079-1.547.421-.797 1.593-3.188 2.625-5.25 3.468-6.891 3.703-10.125.937-12.75-1.828-1.781-2.531-1.969-15.609-4.359-27.797-5.11-42.328-10.454-60.422-22.219-3-1.969-5.625-3.563-5.906-3.563-.235 0-.422-.234-.422-.468a.47.47 0 0 0-.469-.469c-1.453 0-19.359-13.078-24.656-18-1.875-1.688-3.61-3.094-3.844-3.094-.656 0-10.688-10.687-20.719-22.031-4.453-5.016-11.578-12.844-15.75-17.438-5.812-6.234-7.687-8.578-7.687-9.468 0-1.172.14-1.219 2.39-1.219 5.157 0 18.094-3.516 23.532-6.375 1.218-.656 2.203-1.078 2.203-.938 0 .094 2.437-1.125 5.437-2.812l5.438-3.047 8.718-.422c8.813-.422 10.688-.656 16.735-2.109 10.406-2.532 17.437-9.047 16.453-15.282-.234-1.5-2.063-6.234-2.156-5.578-.047.141-.094 1.266-.141 2.578-.234 4.922-3.75 9.235-10.031 12.235-4.078 1.969-11.063 3.797-16.125 4.219-3.703.328-3.703.328-3.703-.797 0-.844.656-1.547 2.437-2.766 5.813-3.937 13.453-10.547 22.313-19.359 5.203-5.157 9.468-9.563 9.468-9.797 0-.61 3.188-1.735 6.469-2.297 13.36-2.25 23.766-7.922 26.344-14.391.844-2.203.328-6.14-1.172-8.718-.703-1.172-1.312-2.157-1.406-2.157-.047 0 0 .938.094 2.063.14 1.172-.094 3.14-.563 4.734-1.5 5.203-8.156 10.313-16.828 12.938-6 1.828-5.953.89.469-7.172 9.797-12.281 10.593-13.36 18.515-25.219l3-4.453 4.922-1.734c18.891-6.75 27.563-16.219 23.016-25.125-1.031-1.969-4.219-5.204-3.563-3.61.188.516.469 2.25.61 3.844.375 5.391-2.344 10.031-8.485 14.391-3.187 2.25-9.281 5.437-10.406 5.437-.797 0-.984-2.297-.281-3.047 1.734-1.828 12.515-23.859 16.781-34.406 1.406-3.469 2.859-6.563 3.234-6.938.329-.375 3.141-2.062 6.141-3.75 9.844-5.484 17.156-11.484 21.047-17.343 4.875-7.36 3.844-14.485-2.906-19.875-1.688-1.313-3.141-2.344-3.235-2.203-.14.093.328.937.938 1.875 2.156 3.14 2.719 5.25 2.484 9.187-.234 4.125-1.5 6.984-4.875 11.391-3.89 5.109-13.312 12.609-15.75 12.609-.75 0-.75-1.547 0-3.328 3-7.406 8.719-30.328 11.11-44.484.703-3.985 1.359-7.594 1.5-7.969.14-.375.234-1.172.187-1.781-.094-.797.656-1.782 2.813-3.75 17.015-15.563 23.765-24.891 25.359-35.11 1.312-8.437-3.75-15.187-13.641-18.14-3.328-.985-3.984-.938-1.875.187 2.344 1.219 5.438 4.5 6.891 7.266 1.172 2.156 1.266 2.812 1.266 7.734 0 5.203-.047 5.531-1.829 9.609-2.25 5.25-5.718 10.547-10.312 15.797-3.422 3.938-5.203 5.532-6.094 5.532-.469 0-.281-3.141.891-18.516.375-5.156.844-16.64 1.031-25.547l.281-16.172 4.922-5.156c11.297-11.813 18.703-23.344 21.891-34.219 1.547-5.203 1.734-13.031.422-16.922-2.016-6-6.75-9.937-14.719-12.187-3.469-.985-14.766-1.453-15.938-.656Z"/></svg>